<?xml version="1.0" encoding="UTF-8" standalone="no"?>
<svg
   xmlns:dc="http://purl.org/dc/elements/1.1/"
   xmlns:cc="http://creativecommons.org/ns#"
   xmlns:rdf="http://www.w3.org/1999/02/22-rdf-syntax-ns#"
   xmlns:svg="http://www.w3.org/2000/svg"
   xmlns="http://www.w3.org/2000/svg"
   xmlns:sodipodi="http://sodipodi.sourceforge.net/DTD/sodipodi-0.dtd"
   xmlns:inkscape="http://www.inkscape.org/namespaces/inkscape"
   id="Layer_4"
   viewBox="0 0 839 200"
   version="1.1"
   inkscape:version="0.91 r13725"
   sodipodi:docname="logo-light-2017.svg">
  <metadata
     id="metadata76">
    <rdf:RDF>
      <cc:Work
         rdf:about="">
        <dc:format>image/svg+xml</dc:format>
        <dc:type
           rdf:resource="http://purl.org/dc/dcmitype/StillImage" />
        <dc:title></dc:title>
      </cc:Work>
    </rdf:RDF>
  </metadata>
  <defs
     id="defs74" />
  <sodipodi:namedview
     pagecolor="#ffffff"
     bordercolor="#666666"
     borderopacity="1"
     objecttolerance="10"
     gridtolerance="10"
     guidetolerance="10"
     inkscape:pageopacity="0"
     inkscape:pageshadow="2"
     inkscape:window-width="1680"
     inkscape:window-height="947"
     id="namedview72"
     showgrid="false"
     inkscape:zoom="1"
     inkscape:cx="290"
     inkscape:cy="56.014509"
     inkscape:window-x="604"
     inkscape:window-y="1441"
     inkscape:window-maximized="1"
     inkscape:current-layer="Layer_4"
     inkscape:snap-text-baseline="true" />
  <style
     id="style3">.st0{fill:none;} .st1{fill:#FFC107;} .st2{fill:#0F9D58;} .st3{opacity:0.2;fill:#BF360C;enable-background:new ;} .st4{opacity:0.2;fill:#263238;enable-background:new ;} .st5{opacity:0.2;fill:#FFFFFF;enable-background:new ;} .st6{fill:url(#XMLID_126_);} .st7{fill:url(#XMLID_127_);} .st8{fill:#4285F4;} .st9{fill:#DB4437;} .st10{opacity:0.2;fill:#1A237E;enable-background:new ;} .st11{opacity:0.2;fill:#3E2723;enable-background:new ;} .st12{fill:url(#XMLID_128_);} .st13{fill:#FAFAFA;}</style>
  <g
     id="XMLID_60_">
    <g
       id="XMLID_61_">
      <g
         id="XMLID_62_">
        <path
           id="XMLID_106_"
           class="st0"
           d="M122.5 90.6L70.1 0H0l57.8 100L0 200h70.1l52.4-90.6c3.3-5.8 3.3-13 0-18.8z" />
        <path
           id="XMLID_105_"
           class="st1"
           d="M92.4 159.8l-16.6-28.7L35.9 200h34.2l22.8-39.4z" />
        <path
           id="XMLID_104_"
           class="st0"
           d="M122.5 90.6L70.1 0H0l57.8 100L0 200h70.1l52.4-90.6c3.3-5.8 3.3-13 0-18.8z" />
        <path
           id="XMLID_103_"
           class="st2"
           d="M57.8 100l18 31.1L35.9 200H0z" />
        <path
           id="XMLID_102_"
           class="st0"
           d="M122.5 90.6L70.1 0H0l57.8 100L0 200h70.1l52.4-90.6c3.3-5.8 3.3-13 0-18.8z" />
        <path
           id="XMLID_101_"
           class="st3"
           d="M70.1 198.4H36.8l-.9 1.6h34.2l22.8-39.4-.5-.8z" />
        <path
           id="XMLID_100_"
           class="st0"
           d="M122.5 90.6L70.1 0H0l57.8 100L0 200h70.1l52.4-90.6c3.3-5.8 3.3-13 0-18.8z" />
        <path
           id="XMLID_99_"
           class="st4"
           d="M.9 198.4L0 200h35.9l.9-1.6z" />
        <path
           id="XMLID_98_"
           class="st0"
           d="M122.5 90.6L70.1 0H0l57.8 100L0 200h70.1l52.4-90.6c3.3-5.8 3.3-13 0-18.8z" />
        <path
           id="XMLID_96_"
           class="st5"
           d="M0 200h.9l57.4-99.2-.5-.8z" />
        <path
           id="XMLID_94_"
           class="st0"
           d="M122.5 90.6L70.1 0H0l57.8 100L0 200h70.1l52.4-90.6c3.3-5.8 3.3-13 0-18.8z" />
        <radialGradient
           id="XMLID_126_"
           cx="92.62"
           cy="2707.501"
           r="69.162"
           gradientTransform="matrix(1 0 0 -1 0 2867.46)"
           gradientUnits="userSpaceOnUse">
          <stop
             offset="0"
             stop-color="#BF360C"
             stop-opacity=".2"
             id="stop20" />
          <stop
             offset="1"
             stop-color="#BF360C"
             stop-opacity=".02"
             id="stop22" />
        </radialGradient>
        <path
           id="XMLID_92_"
           class="st6"
           d="M92.9 160.6l-17.1-29.5-4.2 7.2z" />
        <path
           id="XMLID_90_"
           class="st0"
           d="M122.5 90.6L70.1 0H0l57.8 100L0 200h70.1l52.4-90.6c3.3-5.8 3.3-13 0-18.8z" />
        <radialGradient
           id="XMLID_127_"
           cx="92.423"
           cy="2707.063"
           r="69.723"
           gradientTransform="matrix(1 0 0 -1 0 2867.46)"
           gradientUnits="userSpaceOnUse">
          <stop
             offset="0"
             stop-color="#263238"
             stop-opacity=".2"
             id="stop27" />
          <stop
             offset="1"
             stop-color="#263238"
             stop-opacity=".02"
             id="stop29" />
        </radialGradient>
        <path
           id="XMLID_89_"
           class="st7"
           d="M71.6 138.3l4.2-7.2-18-31.1-8.5 14.8z" />
        <path
           id="XMLID_88_"
           class="st0"
           d="M122.5 90.6L70.1 0H0l57.8 100L0 200h70.1l52.4-90.6c3.3-5.8 3.3-13 0-18.8z" />
        <g
           id="XMLID_85_">
          <g
             id="XMLID_86_">
            <path
               id="XMLID_87_"
               class="st8"
               d="M35.9 0H0l92.9 160.6 17.9-31.1z" />
          </g>
        </g>
        <path
           id="XMLID_84_"
           class="st0"
           d="M122.5 90.6L70.1 0H0l57.8 100L0 200h70.1l52.4-90.6c3.3-5.8 3.3-13 0-18.8z" />
        <path
           id="XMLID_83_"
           class="st9"
           d="M122.5 109.4c3.4-5.8 3.4-13 0-18.8L70.1 0H35.9l74.9 129.5 11.7-20.1z" />
        <path
           id="XMLID_82_"
           class="st0"
           d="M122.5 90.6L70.1 0H0l57.8 100L0 200h70.1l52.4-90.6c3.3-5.8 3.3-13 0-18.8z" />
        <path
           id="XMLID_71_"
           class="st10"
           d="M110.8 129.5l-.4-.8L92.9 159 .9 0H0l92.9 160.6 17.9-31.1z" />
        <path
           id="XMLID_69_"
           class="st0"
           d="M122.5 90.6L70.1 0H0l57.8 100L0 200h70.1l52.4-90.6c3.3-5.8 3.3-13 0-18.8z" />
        <path
           id="XMLID_67_"
           class="st5"
           d="M70.1 1.6l52.4 90.6c1.5 2.7 2.3 5.6 2.5 8.6.1-3.5-.7-7-2.5-10.2L70.1 0H0l.9 1.6h69.2z" />
        <path
           id="XMLID_66_"
           class="st0"
           d="M122.5 90.6L70.1 0H0l57.8 100L0 200h70.1l52.4-90.6c3.3-5.8 3.3-13 0-18.8z" />
        <path
           id="XMLID_65_"
           class="st11"
           d="M110.8 129.5l11.6-20.1c1.8-3.1 2.6-6.7 2.5-10.2-.1 3-.9 5.9-2.5 8.6l-12.1 20.9.5.8z" />
        <path
           id="XMLID_64_"
           class="st0"
           d="M122.5 90.6L70.1 0H0l57.8 100L0 200h70.1l52.4-90.6c3.3-5.8 3.3-13 0-18.8z" />
        <radialGradient
           id="XMLID_128_"
           cx="-1.563"
           cy="2865.898"
           r="209.922"
           gradientTransform="matrix(1 0 0 -1 0 2867.46)"
           gradientUnits="userSpaceOnUse">
          <stop
             offset="0"
             stop-color="#FFF"
             stop-opacity=".1"
             id="stop46" />
          <stop
             offset="1"
             stop-color="#FFF"
             stop-opacity="0"
             id="stop48" />
        </radialGradient>
        <path
           id="XMLID_63_"
           class="st12"
           d="M122.5 90.6L70.1 0H0l57.8 100L0 200h70.1l52.4-90.6c3.3-5.8 3.3-13 0-18.8z" />
      </g>
    </g>
  </g>
  <g
     transform="translate(-114,192)"
     style="font-style:normal;font-variant:normal;font-weight:normal;font-stretch:normal;font-size:40px;line-height:125%;font-family:'Product Sans';-inkscape-font-specification:'Product Sans';letter-spacing:0px;word-spacing:0px;fill:#fafafa;fill-opacity:1;stroke:none;stroke-width:1px;stroke-linecap:butt;stroke-linejoin:miter;stroke-opacity:1"
     id="flowRoot4214">
    <path
       d="m 213.86,81.766187 q 0,2.87 -2.05,4.92 -1.9475,2.05 -4.92,2.05 -2.87,0 -4.92,-2.05 -2.05,-2.05 -2.05,-4.92 0,-2.9725 2.05,-4.92 2.05,-2.05 4.92,-2.05 2.9725,0 4.92,2.05 2.05,1.9475 2.05,4.92 z"
       style="font-size:102.5px;line-height:100%;fill:#fafafa;fill-opacity:1"
       id="path4304"
       inkscape:connector-curvature="0" />
  </g>
  <g
     transform="translate(34,186)"
     style="font-style:normal;font-variant:normal;font-weight:normal;font-stretch:normal;font-size:80px;line-height:125%;font-family:sans-serif;-inkscape-font-specification:'sans-serif, Normal';text-align:start;letter-spacing:0px;word-spacing:0px;writing-mode:lr-tb;text-anchor:start;fill:#fafafa;fill-opacity:1;stroke:none;stroke-width:1px;stroke-linecap:butt;stroke-linejoin:miter;stroke-opacity:1"
     id="flowRoot3395">
    <path
       d="m 182.49,-137.57455 q 0,13.5 -8.01,21.51 -9,9.54 -23.67,9.54 -14.04,0 -23.76,-9.72 -9.72,-9.72 -9.72,-23.94 0,-14.22 9.72,-23.94 9.72,-9.72 23.76,-9.72 7.11,0 13.41,2.52 6.3,2.52 10.35,7.11 l -5.94,5.94 q -2.97,-3.6 -7.74,-5.58 -4.68,-2.07 -10.08,-2.07 -10.53,0 -17.82,7.29 -7.2,7.38 -7.2,18.45 0,11.07 7.2,18.45 7.29,7.29 17.82,7.29 9.63,0 16.02,-5.4 6.39,-5.4 7.38,-14.85 l -23.4,0 0,-7.74 31.23,0 q 0.45,2.52 0.45,4.86 z"
       style="font-style:normal;font-variant:normal;font-weight:normal;font-stretch:normal;font-size:90px;line-height:125%;font-family:'Product Sans';-inkscape-font-specification:'Product Sans, Normal';text-align:start;writing-mode:lr-tb;text-anchor:start;fill:#fafafa;fill-opacity:1"
       id="path4322" />
    <path
       d="m 192.55031,-107.96455 0,-64.44 19.71,0 q 14.76,0 23.67,8.91 9,8.91 9,23.31 0,14.49 -9,23.4 -8.91,8.82 -23.67,8.82 l -19.71,0 z m 8.28,-56.52 0,48.6 11.43,0 q 11.25,0 17.73,-6.39 6.48,-6.48 6.48,-17.91 0,-11.34 -6.48,-17.82 -6.48,-6.48 -17.73,-6.48 l -11.43,0 z"
       style="font-style:normal;font-variant:normal;font-weight:normal;font-stretch:normal;font-size:90px;line-height:125%;font-family:'Product Sans';-inkscape-font-specification:'Product Sans, Normal';text-align:start;writing-mode:lr-tb;text-anchor:start;fill:#fafafa;fill-opacity:1"
       id="path4324" />
    <path
       d="m 316.78687,-137.57455 q 0,13.5 -8.00999,21.51 -9,9.54 -23.67001,9.54 -14.04,0 -23.76,-9.72 -9.72,-9.72 -9.72,-23.94 0,-14.22 9.72,-23.94 9.72,-9.72 23.76,-9.72 7.11001,0 13.41001,2.52 6.29999,2.52 10.34999,7.11 l -5.94,5.94 q -2.96999,-3.6 -7.74,-5.58 -4.68,-2.07 -10.08,-2.07 -10.53,0 -17.82,7.29 -7.19999,7.38 -7.19999,18.45 0,11.07 7.19999,18.45 7.29,7.29 17.82,7.29 9.63,0 16.02,-5.4 6.39001,-5.4 7.38,-14.85 l -23.4,0 0,-7.74 31.23001,0 q 0.44999,2.52 0.44999,4.86 z"
       style="font-style:normal;font-variant:normal;font-weight:normal;font-stretch:normal;font-size:90px;line-height:125%;font-family:'Product Sans';-inkscape-font-specification:'Product Sans, Normal';text-align:start;writing-mode:lr-tb;text-anchor:start;fill:#fafafa;fill-opacity:1"
       id="path4326" />
    <path
       d="m 346.71047,-107.96455 0,-64.44 19.71,0 q 14.76,0 23.67,8.91 9,8.91 9,23.31 0,14.49 -9,23.4 -8.91,8.82 -23.67,8.82 l -19.71,0 z m 8.28,-56.52 0,48.6 11.43,0 q 11.25,0 17.73,-6.39 6.48,-6.48 6.48,-17.91 0,-11.34 -6.48,-17.82 -6.48,-6.48 -17.73,-6.48 l -11.43,0 z"
       style="font-style:normal;font-variant:normal;font-weight:normal;font-stretch:normal;font-size:90px;line-height:125%;font-family:'Product Sans';-inkscape-font-specification:'Product Sans, Normal';text-align:start;writing-mode:lr-tb;text-anchor:start;fill:#fafafa;fill-opacity:1"
       id="path4328" />
    <path
       d="m 425.89078,-106.52455 q -9.72,0 -16.02,-6.66 -6.3,-6.66 -6.3,-16.83 0,-10.08 6.12,-16.74 6.12,-6.75 15.66,-6.75 9.81,0 15.57,6.39 5.85,6.3 5.85,17.73 l -0.09,0.9 -34.65,0 q 0.18,6.48 4.32,10.44 4.14,3.96 9.9,3.96 7.92,0 12.42,-7.92 l 7.38,3.6 q -2.97,5.58 -8.28,8.73 -5.22,3.15 -11.88,3.15 z m -13.23,-28.8 25.29,0 q -0.36,-4.59 -3.78,-7.56 -3.33,-3.06 -9,-3.06 -4.68,0 -8.1,2.88 -3.33,2.88 -4.41,7.74 z"
       style="font-style:normal;font-variant:normal;font-weight:normal;font-stretch:normal;font-size:90px;line-height:125%;font-family:'Product Sans';-inkscape-font-specification:'Product Sans, Normal';text-align:start;writing-mode:lr-tb;text-anchor:start;fill:#fafafa;fill-opacity:1"
       id="path4330" />
    <path
       d="m 474.79594,-107.96455 -8.28,0 -17.82,-44.1 9,0 12.96,34.2 0.18,0 13.14,-34.2 8.82,0 -18,44.1 z"
       style="font-style:normal;font-variant:normal;font-weight:normal;font-stretch:normal;font-size:90px;line-height:125%;font-family:'Product Sans';-inkscape-font-specification:'Product Sans, Normal';text-align:start;writing-mode:lr-tb;text-anchor:start;fill:#fafafa;fill-opacity:1"
       id="path4332" />
    <path
       d="m 507.92016,-135.59455 0,27.63 -8.28,0 0,-64.44 37.62,0 0,7.92 -29.34,0 0,21.15 26.46,0 0,7.74 -26.46,0 z"
       style="font-style:normal;font-variant:normal;font-weight:normal;font-stretch:normal;font-size:90px;line-height:125%;font-family:'Product Sans';-inkscape-font-specification:'Product Sans, Normal';text-align:start;writing-mode:lr-tb;text-anchor:start;fill:#fafafa;fill-opacity:1"
       id="path4334" />
    <path
       d="m 562.29703,-106.52455 q -9.72,0 -16.02,-6.66 -6.3,-6.66 -6.3,-16.83 0,-10.08 6.12,-16.74 6.12,-6.75 15.66,-6.75 9.81,0 15.57,6.39 5.85,6.3 5.85,17.73 l -0.09,0.9 -34.65,0 q 0.18,6.48 4.32,10.44 4.14,3.96 9.9,3.96 7.92,0 12.42,-7.92 l 7.38,3.6 q -2.97,5.58 -8.28,8.73 -5.22,3.15 -11.88,3.15 z m -13.23,-28.8 25.29,0 q -0.36,-4.59 -3.78,-7.56 -3.33,-3.06 -9,-3.06 -4.68,0 -8.1,2.88 -3.33,2.88 -4.41,7.74 z"
       style="font-style:normal;font-variant:normal;font-weight:normal;font-stretch:normal;font-size:90px;line-height:125%;font-family:'Product Sans';-inkscape-font-specification:'Product Sans, Normal';text-align:start;writing-mode:lr-tb;text-anchor:start;fill:#fafafa;fill-opacity:1"
       id="path4336" />
    <path
       d="m 624.93844,-120.20455 q 0,5.76 -5.04,9.72 -5.04,3.96 -12.69,3.96 -6.66,0 -11.7,-3.42 -5.04,-3.51 -7.2,-9.18 l 7.38,-3.15 q 1.62,3.96 4.68,6.21 3.15,2.16 6.84,2.16 3.96,0 6.57,-1.71 2.7,-1.71 2.7,-4.05 0,-4.23 -6.48,-6.21 l -7.56,-1.89 q -12.87,-3.24 -12.87,-12.42 0,-6.03 4.86,-9.63 4.95,-3.69 12.6,-3.69 5.85,0 10.53,2.79 4.77,2.79 6.66,7.47 l -7.38,3.06 q -1.26,-2.79 -4.14,-4.32 -2.79,-1.62 -6.3,-1.62 -3.24,0 -5.85,1.62 -2.52,1.62 -2.52,3.96 0,3.78 7.11,5.4 l 6.66,1.71 q 13.14,3.24 13.14,13.23 z"
       style="font-style:normal;font-variant:normal;font-weight:normal;font-stretch:normal;font-size:90px;line-height:125%;font-family:'Product Sans';-inkscape-font-specification:'Product Sans, Normal';text-align:start;writing-mode:lr-tb;text-anchor:start;fill:#fafafa;fill-opacity:1"
       id="path4338" />
    <path
       d="m 648.90234,-107.24455 q -5.4,0 -9,-3.33 -3.51,-3.33 -3.6,-9.27 l 0,-24.66 -7.74,0 0,-7.56 7.74,0 0,-13.5 8.28,0 0,13.5 10.8,0 0,7.56 -10.8,0 0,21.96 q 0,4.41 1.71,6.03 1.71,1.53 3.87,1.53 0.99,0 1.89,-0.18 0.99,-0.27 1.8,-0.63 l 2.61,7.38 q -3.24,1.17 -7.56,1.17 z"
       style="font-style:normal;font-variant:normal;font-weight:normal;font-stretch:normal;font-size:90px;line-height:125%;font-family:'Product Sans';-inkscape-font-specification:'Product Sans, Normal';text-align:start;writing-mode:lr-tb;text-anchor:start;fill:#fafafa;fill-opacity:1"
       id="path4340" />
    <path
       d="m 128.76,4.5354493 -8.28,0 0,-64.4400003 8.28,0 0,64.4400003 z"
       style="font-style:normal;font-variant:normal;font-weight:normal;font-stretch:normal;font-size:90px;line-height:125%;font-family:'Product Sans';-inkscape-font-specification:'Product Sans, Normal';text-align:start;writing-mode:lr-tb;text-anchor:start;fill:#fafafa;fill-opacity:1"
       id="path4342" />
    <path
       d="m 173.78953,4.5354493 -35.64,0 0,-7.2 25.11,-29.3400003 -24.39,0 0,-7.56 34.56,0 0,7.2 -25.11,29.3400003 25.47,0 0,7.56 z"
       style="font-style:normal;font-variant:normal;font-weight:normal;font-stretch:normal;font-size:90px;line-height:125%;font-family:'Product Sans';-inkscape-font-specification:'Product Sans, Normal';text-align:start;writing-mode:lr-tb;text-anchor:start;fill:#fafafa;fill-opacity:1"
       id="path4344" />
    <path
       d="m 189.89812,4.5354493 -8.28,0 0,-44.1000003 7.92,0 0,6.12 0.36,0 q 1.89,-3.24 5.76,-5.4 3.96,-2.16 7.83,-2.16 4.86,0 8.55,2.25 3.69,2.25 5.40001,6.21 5.48999,-8.46 15.20999,-8.46 7.65,0 11.79001,4.68 4.13999,4.68 4.13999,13.32 l 0,27.5400003 -8.28,0 0,-26.2800003 q 0,-6.21 -2.25,-8.91 -2.25,-2.79 -7.56,-2.79 -4.77,0 -8.01,4.05 -3.24,4.05 -3.24,9.54 l 0,24.3900003 -8.28,0 0,-26.2800003 q 0,-6.21 -2.25,-8.91 -2.25,-2.79 -7.56,-2.79 -4.77,0 -8.01,4.05 -3.24,4.05 -3.24,9.54 l 0,24.3900003 z"
       style="font-style:normal;font-variant:normal;font-weight:normal;font-stretch:normal;font-size:90px;line-height:125%;font-family:'Product Sans';-inkscape-font-specification:'Product Sans, Normal';text-align:start;writing-mode:lr-tb;text-anchor:start;fill:#fafafa;fill-opacity:1"
       id="path4346" />
    <path
       d="m 269.14453,-54.774551 q 0,2.43 -1.71,4.14 -1.71,1.71 -4.14,1.71 -2.43,0 -4.14,-1.71 -1.71,-1.71 -1.71,-4.14 0,-2.43 1.71,-4.14 1.71,-1.71 4.14,-1.71 2.43,0 4.14,1.71 1.71,1.71 1.71,4.14 z m -1.71,15.21 0,44.1000003 -8.28,0 0,-44.1000003 8.28,0 z"
       style="font-style:normal;font-variant:normal;font-weight:normal;font-stretch:normal;font-size:90px;line-height:125%;font-family:'Product Sans';-inkscape-font-specification:'Product Sans, Normal';text-align:start;writing-mode:lr-tb;text-anchor:start;fill:#fafafa;fill-opacity:1"
       id="path4348" />
    <path
       d="m 286.57781,4.5354493 -8.28,0 0,-44.1000003 7.92,0 0,7.2 0.36,0 q 1.26,-3.51 5.13,-5.94 3.96,-2.52 7.74,-2.52 3.6,0 6.12,1.08 l -2.52,8.01 q -1.53,-0.63 -4.86,-0.63 -4.68,0 -8.19,3.78 -3.42,3.78 -3.42,8.82 l 0,24.3000003 z"
       style="font-style:normal;font-variant:normal;font-weight:normal;font-stretch:normal;font-size:90px;line-height:125%;font-family:'Product Sans';-inkscape-font-specification:'Product Sans, Normal';text-align:start;writing-mode:lr-tb;text-anchor:start;fill:#fafafa;fill-opacity:1"
       id="path4350" />
    <path
       d="m 368.65641,-3.3845507 0,7.92 -39.24,0 0,-8.28 15.93,-16.1100003 q 8.01,-8.19 11.07,-12.24 3.06,-4.14 3.06,-8.64 0,-4.05 -3.15,-6.93 -3.15,-2.88 -8.1,-2.88 -4.23,0 -7.29,2.52 -3.06,2.52 -3.96,6.12 l -7.56,-3.06 q 1.8,-5.67 6.93,-9.54 5.13,-3.96 12.06,-3.96 8.37,0 13.95,5.13 5.58,5.13 5.58,12.6 0,8.91 -9.81,19.26 l -18,18.0900003 28.53,0 z"
       style="font-style:normal;font-variant:normal;font-weight:normal;font-stretch:normal;font-size:90px;line-height:125%;font-family:'Product Sans';-inkscape-font-specification:'Product Sans, Normal';text-align:start;writing-mode:lr-tb;text-anchor:start;fill:#fafafa;fill-opacity:1"
       id="path4352" />
    <path
       d="m 376.53422,-26.244551 q 0,-14.04 6.93,-23.13 6.93,-9.09 17.82,-9.09 10.89,0 17.82,9.18 6.93,9.09 6.93,23.04 0,13.86 -6.93,23.1300003 -6.93,9.09 -17.82,9.09 -10.89,0 -17.82,-9.09 -6.93,-9.2700003 -6.93,-23.1300003 z m 41.04,0 q 0,-10.62 -4.5,-17.46 -4.41,-6.84 -11.79,-6.84 -7.38,0 -11.79,6.84 -4.5,6.84 -4.5,17.46 0,10.62 4.5,17.5500003 4.41,6.75 11.79,6.75 7.38,0 11.79,-6.84 4.5,-6.9300003 4.5,-17.4600003 z"
       style="font-style:normal;font-variant:normal;font-weight:normal;font-stretch:normal;font-size:90px;line-height:125%;font-family:'Product Sans';-inkscape-font-specification:'Product Sans, Normal';text-align:start;writing-mode:lr-tb;text-anchor:start;fill:#fafafa;fill-opacity:1"
       id="path4354" />
    <path
       d="m 456.35156,-57.024551 0,61.5600003 -8.28,0 0,-51.3000003 -11.97,5.22 -3.15,-7.02 18.09,-8.46 5.31,0 z"
       style="font-style:normal;font-variant:normal;font-weight:normal;font-stretch:normal;font-size:90px;line-height:125%;font-family:'Product Sans';-inkscape-font-specification:'Product Sans, Normal';text-align:start;writing-mode:lr-tb;text-anchor:start;fill:#fafafa;fill-opacity:1"
       id="path4356" />
    <path
       d="m 507.27469,-48.564551 -29.88,54.5400003 -7.38,-3.78 28.53,-51.3000003 -31.14,0 0.18,-7.92 39.69,0 0,8.46 z"
       style="font-style:normal;font-variant:normal;font-weight:normal;font-stretch:normal;font-size:90px;line-height:125%;font-family:'Product Sans';-inkscape-font-specification:'Product Sans, Normal';text-align:start;writing-mode:lr-tb;text-anchor:start;fill:#fafafa;fill-opacity:1"
       id="path4358" />
  </g>
  <g
     style="font-style:normal;font-variant:normal;font-weight:normal;font-stretch:normal;font-size:90px;line-height:125%;font-family:'Product Sans';-inkscape-font-specification:'Product Sans, Normal';text-align:start;letter-spacing:0px;word-spacing:0px;writing-mode:lr-tb;text-anchor:start;fill:#fafafa;fill-opacity:1;stroke:none;stroke-width:1px;stroke-linecap:butt;stroke-linejoin:miter;stroke-opacity:1"
     id="text3451">
    <path
       d="m 164.56,111.42 q 0,2.52 -1.8,4.32 -1.71,1.8 -4.32,1.8 -2.52,0 -4.32,-1.8 -1.8,-1.8 -1.8,-4.32 0,-2.61 1.8,-4.32 1.8,-1.8 4.32,-1.8 2.61,0 4.32,1.8 1.8,1.71 1.8,4.32 z"
       style=""
       id="path4361" />
  </g>
</svg>
