<?xml version="1.0" encoding="UTF-8" standalone="no"?>
<svg
   xmlns:dc="http://purl.org/dc/elements/1.1/"
   xmlns:cc="http://creativecommons.org/ns#"
   xmlns:rdf="http://www.w3.org/1999/02/22-rdf-syntax-ns#"
   xmlns:svg="http://www.w3.org/2000/svg"
   xmlns="http://www.w3.org/2000/svg"
   xmlns:sodipodi="http://sodipodi.sourceforge.net/DTD/sodipodi-0.dtd"
   xmlns:inkscape="http://www.inkscape.org/namespaces/inkscape"
   id="Layer_4"
   viewBox="0 0 839 200"
   version="1.1"
   inkscape:version="0.91 r13725"
   sodipodi:docname="logo-white.svg">
  <metadata
     id="metadata35">
    <rdf:RDF>
      <cc:Work
         rdf:about="">
        <dc:format>image/svg+xml</dc:format>
        <dc:type
           rdf:resource="http://purl.org/dc/dcmitype/StillImage" />
        <dc:title></dc:title>
      </cc:Work>
    </rdf:RDF>
  </metadata>
  <defs
     id="defs33" />
  <sodipodi:namedview
     pagecolor="#ffffff"
     bordercolor="#666666"
     borderopacity="1"
     objecttolerance="10"
     gridtolerance="10"
     guidetolerance="10"
     inkscape:pageopacity="0"
     inkscape:pageshadow="2"
     inkscape:window-width="1440"
     inkscape:window-height="788"
     id="namedview31"
     showgrid="false"
     inkscape:zoom="1"
     inkscape:cx="394.5"
     inkscape:cy="100"
     inkscape:window-x="0"
     inkscape:window-y="1"
     inkscape:window-maximized="1"
     inkscape:current-layer="Layer_4" />
  <style
     id="style3">.st0{fill:#FFFFFF;}</style>
  <g
     id="XMLID_261_"
     style="fill:#ffffff">
    <path
       id="XMLID_259_"
       class="st0"
       d="M32.3 0H0l92.3 160 16.2-28z"
       style="fill:#ffffff" />
    <path
       id="XMLID_258_"
       class="st0"
       d="M120.9 91L68.3 0H36.1l74.3 128.8 10.5-18.2c1.7-2.8 2.8-6.2 2.8-9.8-.1-3.6-1.1-6.9-2.8-9.8z"
       style="fill:#ffffff" />
    <path
       id="XMLID_257_"
       class="st0"
       d="M56.3 104.1L.9 200h32.3l39.3-68z"
       style="fill:#ffffff" />
    <path
       id="XMLID_256_"
       class="st0"
       d="M74.3 135.3L37 200h32.2l21.3-36.8z"
       style="fill:#ffffff" />
  </g>
  <g
     transform="translate(0,2)"
     style="font-style:normal;font-variant:normal;font-weight:normal;font-stretch:normal;font-size:40px;line-height:125%;font-family:'Product Sans';-inkscape-font-specification:'Product Sans';letter-spacing:0px;word-spacing:0px;fill:#ffffff;fill-opacity:1;stroke:none;stroke-width:1px;stroke-linecap:butt;stroke-linejoin:miter;stroke-opacity:1"
     id="flowRoot3363">
    <path
       d="m 272.1,56.242622 q 0,15 -8.9,23.9 -10,10.6 -26.3,10.6 -15.6,0 -26.4,-10.8 -10.8,-10.8 -10.8,-26.6 0,-15.8 10.8,-26.6 10.8,-10.8 26.4,-10.8 7.9,0 14.9,2.8 7,2.8 11.5,7.9 l -6.6,6.6 q -3.3,-4 -8.6,-6.2 -5.2,-2.3 -11.2,-2.3 -11.7,0 -19.8,8.1 -8,8.2 -8,20.5 0,12.3 8,20.5 8.1,8.1 19.8,8.1 10.7,0 17.8,-6 7.1,-6 8.2,-16.5 l -26,0 0,-8.6 34.7,0 q 0.5,2.8 0.5,5.4 z"
       style="font-size:100px;line-height:100%;fill:#ffffff;fill-opacity:1"
       id="path4186" />
    <path
       d="m 283.27812,89.142622 0,-71.6 21.90001,0 q 16.39999,0 26.29999,9.9 10,9.9 10,25.9 0,16.1 -10,26 -9.9,9.8 -26.29999,9.8 l -21.90001,0 z m 9.2,-62.8 0,54 12.70001,0 q 12.5,0 19.69999,-7.1 7.2,-7.2 7.2,-19.9 0,-12.6 -7.2,-19.8 -7.19999,-7.2 -19.69999,-7.2 l -12.70001,0 z"
       style="font-size:100px;line-height:100%;fill:#ffffff;fill-opacity:1"
       id="path4188" />
    <path
       d="m 421.31875,56.242622 q 0,15 -8.9,23.9 -10,10.6 -26.3,10.6 -15.6,0 -26.4,-10.8 -10.8,-10.8 -10.8,-26.6 0,-15.8 10.8,-26.6 10.8,-10.8 26.4,-10.8 7.9,0 14.9,2.8 7,2.8 11.5,7.9 l -6.6,6.6 q -3.3,-4 -8.6,-6.2 -5.2,-2.3 -11.2,-2.3 -11.7,0 -19.8,8.1 -8,8.2 -8,20.5 0,12.3 8,20.5 8.1,8.1 19.8,8.1 10.7,0 17.8,-6 7.1,-6 8.2,-16.5 l -26,0 0,-8.6 34.7,0 q 0.5,2.8 0.5,5.4 z"
       style="font-size:100px;line-height:100%;fill:#ffffff;fill-opacity:1"
       id="path4190" />
    <path
       d="m 454.56719,89.142622 0,-71.6 21.9,0 q 16.4,0 26.3,9.9 10,9.9 10,25.9 0,16.1 -10,26 -9.9,9.8 -26.3,9.8 l -21.9,0 z m 9.2,-62.8 0,54 12.7,0 q 12.5,0 19.7,-7.1 7.2,-7.2 7.2,-19.9 0,-12.6 -7.2,-19.8 -7.2,-7.2 -19.7,-7.2 l -12.7,0 z"
       style="font-size:100px;line-height:100%;fill:#ffffff;fill-opacity:1"
       id="path4192" />
    <path
       d="m 542.54531,90.742622 q -10.8,0 -17.8,-7.4 -7,-7.4 -7,-18.7 0,-11.2 6.8,-18.6 6.8,-7.5 17.4,-7.5 10.9,0 17.3,7.1 6.5,7 6.5,19.7 l -0.1,1 -38.5,0 q 0.2,7.2 4.8,11.6 4.6,4.4 11,4.4 8.8,0 13.8,-8.8 l 8.2,4 q -3.3,6.2 -9.2,9.7 -5.8,3.5 -13.2,3.5 z m -14.7,-32 28.1,0 q -0.4,-5.1 -4.2,-8.4 -3.7,-3.4 -10,-3.4 -5.2,0 -9,3.2 -3.7,3.2 -4.9,8.6 z"
       style="font-size:100px;line-height:100%;fill:#ffffff;fill-opacity:1"
       id="path4194" />
    <path
       d="m 596.88437,89.142622 -9.19999,0 -19.80001,-49 10,0 14.4,38 0.2,0 14.60001,-38 9.79999,0 -20,49 z"
       style="font-size:100px;line-height:100%;fill:#ffffff;fill-opacity:1"
       id="path4196" />
    <path
       d="m 633.68906,58.442622 0,30.7 -9.2,0 0,-71.6 41.8,0 0,8.8 -32.6,0 0,23.5 29.4,0 0,8.6 -29.4,0 z"
       style="font-size:100px;line-height:100%;fill:#ffffff;fill-opacity:1"
       id="path4198" />
    <path
       d="m 694.10781,90.742622 q -10.8,0 -17.8,-7.4 -7,-7.4 -7,-18.7 0,-11.2 6.8,-18.6 6.8,-7.5 17.4,-7.5 10.9,0 17.3,7.1 6.5,7 6.5,19.7 l -0.1,1 -38.5,0 q 0.2,7.2 4.8,11.6 4.6,4.4 11,4.4 8.8,0 13.8,-8.8 l 8.2,4 q -3.3,6.2 -9.2,9.7 -5.8,3.5 -13.2,3.5 z m -14.7,-32 28.1,0 q -0.4,-5.1 -4.2,-8.4 -3.7,-3.4 -10,-3.4 -5.2,0 -9,3.2 -3.7,3.2 -4.9,8.6 z"
       style="font-size:100px;line-height:100%;fill:#ffffff;fill-opacity:1"
       id="path4200" />
    <path
       d="m 763.70938,75.542622 q 0,6.4 -5.60001,10.8 -5.6,4.4 -14.1,4.4 -7.4,0 -13,-3.8 -5.6,-3.9 -8,-10.2 l 8.20001,-3.5 q 1.79999,4.4 5.19999,6.9 3.5,2.4 7.6,2.4 4.4,0 7.30001,-1.9 3,-1.9 3,-4.5 0,-4.7 -7.20001,-6.9 l -8.39999,-2.1 q -14.30001,-3.6 -14.30001,-13.8 0,-6.7 5.40001,-10.7 5.5,-4.1 14,-4.1 6.5,0 11.69999,3.1 5.30001,3.1 7.4,8.3 l -8.19999,3.4 q -1.4,-3.1 -4.60001,-4.8 -3.1,-1.8 -7,-1.8 -3.6,0 -6.5,1.8 -2.79999,1.8 -2.79999,4.4 0,4.2 7.9,6 l 7.39999,1.9 q 14.60001,3.6 14.60001,14.7 z"
       style="font-size:100px;line-height:100%;fill:#ffffff;fill-opacity:1"
       id="path4202" />
    <path
       d="m 790.33594,89.942622 q -6,0 -10,-3.7 -3.9,-3.7 -4,-10.3 l 0,-27.4 -8.6,0 0,-8.4 8.6,0 0,-15 9.2,0 0,15 12,0 0,8.4 -12,0 0,24.4 q 0,4.9 1.9,6.7 1.9,1.7 4.3,1.7 1.1,0 2.1,-0.2 1.1,-0.3 2,-0.7 l 2.9,8.2 q -3.6,1.3 -8.4,1.3 z"
       style="font-size:100px;line-height:100%;fill:#ffffff;fill-opacity:1"
       id="path4204" />
    <path
       d="m 210.76,181.22836 -8.28,0 0,-64.44 8.28,0 0,64.44 z"
       style="font-size:90px;line-height:100%;fill:#ffffff;fill-opacity:1"
       id="path4206" />
    <path
       d="m 255.78953,181.22836 -35.64,0 0,-7.2 25.11,-29.34 -24.39,0 0,-7.56 34.56,0 0,7.2 -25.11,29.34 25.47,0 0,7.56 z"
       style="font-size:90px;line-height:100%;fill:#ffffff;fill-opacity:1"
       id="path4208" />
    <path
       d="m 271.89812,181.22836 -8.27999,0 0,-44.1 7.91999,0 0,6.12 0.36,0 q 1.89,-3.24 5.76,-5.4 3.96001,-2.16 7.83001,-2.16 4.85999,0 8.54999,2.25 3.69,2.25 5.40001,6.21 5.49,-8.46 15.20999,-8.46 7.65001,0 11.79001,4.68 4.13999,4.68 4.13999,13.32 l 0,27.54 -8.27999,0 0,-26.28 q 0,-6.21 -2.25,-8.91 -2.25,-2.79 -7.56001,-2.79 -4.77,0 -8.01,4.05 -3.23999,4.05 -3.23999,9.54 l 0,24.39 -8.28001,0 0,-26.28 q 0,-6.21 -2.25,-8.91 -2.25,-2.79 -7.56,-2.79 -4.77,0 -8.01,4.05 -3.24,4.05 -3.24,9.54 l 0,24.39 z"
       style="font-size:90px;line-height:100%;fill:#ffffff;fill-opacity:1"
       id="path4210" />
    <path
       d="m 349.43453,137.12836 0,44.1 -8.28,0 0,-44.1 8.28,0 z"
       style="font-size:90px;line-height:100%;fill:#ffffff;fill-opacity:1"
       id="path4212" />
    <path
       d="m 368.57781,181.22836 -8.28,0 0,-44.1 7.92,0 0,7.2 0.36,0 q 1.26,-3.51 5.13,-5.94 3.96,-2.52 7.74,-2.52 3.6,0 6.12,1.08 l -2.52,8.01 q -1.53,-0.63 -4.86,-0.63 -4.68,0 -8.19,3.78 -3.42,3.78 -3.42,8.82 l 0,24.3 z"
       style="font-size:90px;line-height:100%;fill:#ffffff;fill-opacity:1"
       id="path4214" />
    <path
       d="m 450.65641,173.30836 0,7.92 -39.24,0 0,-8.28 15.93,-16.11 q 8.01,-8.19 11.07,-12.24 3.06,-4.14 3.06,-8.64 0,-4.05 -3.15,-6.93 -3.15,-2.88 -8.1,-2.88 -4.23,0 -7.29,2.52 -3.06,2.52 -3.96,6.12 l -7.56,-3.06 q 1.8,-5.67 6.93,-9.54 5.13,-3.96 12.06,-3.96 8.37,0 13.95,5.13 5.58,5.13 5.58,12.6 0,8.91 -9.81,19.26 l -18,18.09 28.53,0 z"
       style="font-size:90px;line-height:100%;fill:#ffffff;fill-opacity:1"
       id="path4216" />
    <path
       d="m 458.53422,150.44836 q 0,-14.04 6.93,-23.13 6.93,-9.09 17.82,-9.09 10.89,0 17.82,9.18 6.93,9.09 6.93,23.04 0,13.86 -6.93,23.13 -6.93,9.09 -17.82,9.09 -10.89,0 -17.82,-9.09 -6.93,-9.27 -6.93,-23.13 z m 41.04,0 q 0,-10.62 -4.5,-17.46 -4.41,-6.84 -11.79,-6.84 -7.38,0 -11.79,6.84 -4.5,6.84 -4.5,17.46 0,10.62 4.5,17.55 4.41,6.75 11.79,6.75 7.38,0 11.79,-6.84 4.5,-6.93 4.5,-17.46 z"
       style="font-size:90px;line-height:100%;fill:#ffffff;fill-opacity:1"
       id="path4218" />
    <path
       d="m 538.35156,119.66836 0,61.56 -8.28,0 0,-51.3 -11.97,5.22 -3.15,-7.02 18.09,-8.46 5.31,0 z"
       style="font-size:90px;line-height:100%;fill:#ffffff;fill-opacity:1"
       id="path4220" />
    <path
       d="m 572.88203,142.16836 q 7.47,0 13.32,5.94 5.94,5.85 5.94,13.95 0,8.28 -6.3,14.49 -6.39,6.12 -14.76,6.12 -8.91,0 -15.03,-6.12 -6.12,-6.12 -6.12,-14.49 0,-7.47 6.03,-17.01 l 17.91,-26.82 6.66,4.59 -15.21,21.06 0.18,0.18 q 2.79,-1.89 7.38,-1.89 z m -14.58,19.98 q 0,5.31 3.69,9 3.69,3.6 9.09,3.6 5.4,0 9,-3.6 3.69,-3.69 3.69,-9 0,-5.22 -3.78,-8.91 -3.69,-3.69 -8.91,-3.69 -5.13,0 -9,3.69 -3.78,3.69 -3.78,8.91 z"
       style="font-size:90px;line-height:100%;fill:#ffffff;fill-opacity:1"
       id="path4222" />
  </g>
  <g
     transform="translate(-1,20)"
     style="font-style:normal;font-variant:normal;font-weight:normal;font-stretch:normal;font-size:40px;line-height:125%;font-family:'Product Sans';-inkscape-font-specification:'Product Sans';letter-spacing:0px;word-spacing:0px;fill:#ffffff;fill-opacity:1;stroke:none;stroke-width:1px;stroke-linecap:butt;stroke-linejoin:miter;stroke-opacity:1"
     id="flowRoot3373">
    <path
       d="m 214.4,82.942622 q 0,2.8 -2,4.8 -1.9,2 -4.8,2 -2.8,0 -4.8,-2 -2,-2 -2,-4.8 0,-2.9 2,-4.8 2,-2 4.8,-2 2.9,0 4.8,2 2,1.9 2,4.8 z"
       style="font-size:100px;line-height:100%;fill:#ffffff;fill-opacity:1"
       id="path4225" />
  </g>
  <g
     style="font-style:normal;font-weight:normal;font-size:40px;line-height:125%;font-family:sans-serif;letter-spacing:0px;word-spacing:0px;fill:#ffffff;fill-opacity:1;stroke:none;stroke-width:1px;stroke-linecap:butt;stroke-linejoin:miter;stroke-opacity:1"
     id="text3360">
    <path
       d="m 351.56,126.42 q 0,2.52 -1.8,4.32 -1.71,1.8 -4.32,1.8 -2.52,0 -4.32,-1.8 -1.8,-1.8 -1.8,-4.32 0,-2.61 1.8,-4.32 1.8,-1.8 4.32,-1.8 2.61,0 4.32,1.8 1.8,1.71 1.8,4.32 z"
       style="font-style:normal;font-variant:normal;font-weight:normal;font-stretch:normal;font-size:90px;font-family:'Product Sans';-inkscape-font-specification:'Product Sans';fill:#ffffff"
       id="path3369" />
  </g>
  <g
     style="font-style:normal;font-weight:normal;font-size:40px;line-height:125%;font-family:sans-serif;letter-spacing:0px;word-spacing:0px;fill:#ffffff;fill-opacity:1;stroke:none;stroke-width:1px;stroke-linecap:butt;stroke-linejoin:miter;stroke-opacity:1"
     id="text3364">
    <path
       d="m 212.56,105.42 q 0,2.52 -1.8,4.32 -1.71,1.8 -4.32,1.8 -2.52,0 -4.32,-1.8 -1.8,-1.8 -1.8,-4.32 0,-2.61 1.8,-4.32 1.8,-1.8 4.32,-1.8 2.61,0 4.32,1.8 1.8,1.71 1.8,4.32 z"
       style="font-style:normal;font-variant:normal;font-weight:normal;font-stretch:normal;font-size:90px;font-family:'Product Sans';-inkscape-font-specification:'Product Sans';fill:#ffffff"
       id="path3372" />
  </g>
</svg>
