<?xml version="1.0" encoding="UTF-8" standalone="no"?>
<svg
   xmlns:dc="http://purl.org/dc/elements/1.1/"
   xmlns:cc="http://creativecommons.org/ns#"
   xmlns:rdf="http://www.w3.org/1999/02/22-rdf-syntax-ns#"
   xmlns:svg="http://www.w3.org/2000/svg"
   xmlns="http://www.w3.org/2000/svg"
   xmlns:sodipodi="http://sodipodi.sourceforge.net/DTD/sodipodi-0.dtd"
   xmlns:inkscape="http://www.inkscape.org/namespaces/inkscape"
   id="Layer_4"
   viewBox="0 0 839 200"
   version="1.1"
   inkscape:version="0.91 r13725"
   sodipodi:docname="logo-light3.svg">
  <metadata
     id="metadata76">
    <rdf:RDF>
      <cc:Work
         rdf:about="">
        <dc:format>image/svg+xml</dc:format>
        <dc:type
           rdf:resource="http://purl.org/dc/dcmitype/StillImage" />
        <dc:title></dc:title>
      </cc:Work>
    </rdf:RDF>
  </metadata>
  <defs
     id="defs74" />
  <sodipodi:namedview
     pagecolor="#ffffff"
     bordercolor="#666666"
     borderopacity="1"
     objecttolerance="10"
     gridtolerance="10"
     guidetolerance="10"
     inkscape:pageopacity="0"
     inkscape:pageshadow="2"
     inkscape:window-width="1440"
     inkscape:window-height="788"
     id="namedview72"
     showgrid="false"
     inkscape:zoom="1"
     inkscape:cx="339.5"
     inkscape:cy="56.014509"
     inkscape:window-x="0"
     inkscape:window-y="1"
     inkscape:window-maximized="1"
     inkscape:current-layer="Layer_4" />
  <style
     id="style3">.st0{fill:none;} .st1{fill:#FFC107;} .st2{fill:#0F9D58;} .st3{opacity:0.2;fill:#BF360C;enable-background:new ;} .st4{opacity:0.2;fill:#263238;enable-background:new ;} .st5{opacity:0.2;fill:#FFFFFF;enable-background:new ;} .st6{fill:url(#XMLID_126_);} .st7{fill:url(#XMLID_127_);} .st8{fill:#4285F4;} .st9{fill:#DB4437;} .st10{opacity:0.2;fill:#1A237E;enable-background:new ;} .st11{opacity:0.2;fill:#3E2723;enable-background:new ;} .st12{fill:url(#XMLID_128_);} .st13{fill:#FAFAFA;}</style>
  <g
     id="XMLID_60_">
    <g
       id="XMLID_61_">
      <g
         id="XMLID_62_">
        <path
           id="XMLID_106_"
           class="st0"
           d="M122.5 90.6L70.1 0H0l57.8 100L0 200h70.1l52.4-90.6c3.3-5.8 3.3-13 0-18.8z" />
        <path
           id="XMLID_105_"
           class="st1"
           d="M92.4 159.8l-16.6-28.7L35.9 200h34.2l22.8-39.4z" />
        <path
           id="XMLID_104_"
           class="st0"
           d="M122.5 90.6L70.1 0H0l57.8 100L0 200h70.1l52.4-90.6c3.3-5.8 3.3-13 0-18.8z" />
        <path
           id="XMLID_103_"
           class="st2"
           d="M57.8 100l18 31.1L35.9 200H0z" />
        <path
           id="XMLID_102_"
           class="st0"
           d="M122.5 90.6L70.1 0H0l57.8 100L0 200h70.1l52.4-90.6c3.3-5.8 3.3-13 0-18.8z" />
        <path
           id="XMLID_101_"
           class="st3"
           d="M70.1 198.4H36.8l-.9 1.6h34.2l22.8-39.4-.5-.8z" />
        <path
           id="XMLID_100_"
           class="st0"
           d="M122.5 90.6L70.1 0H0l57.8 100L0 200h70.1l52.4-90.6c3.3-5.8 3.3-13 0-18.8z" />
        <path
           id="XMLID_99_"
           class="st4"
           d="M.9 198.4L0 200h35.9l.9-1.6z" />
        <path
           id="XMLID_98_"
           class="st0"
           d="M122.5 90.6L70.1 0H0l57.8 100L0 200h70.1l52.4-90.6c3.3-5.8 3.3-13 0-18.8z" />
        <path
           id="XMLID_96_"
           class="st5"
           d="M0 200h.9l57.4-99.2-.5-.8z" />
        <path
           id="XMLID_94_"
           class="st0"
           d="M122.5 90.6L70.1 0H0l57.8 100L0 200h70.1l52.4-90.6c3.3-5.8 3.3-13 0-18.8z" />
        <radialGradient
           id="XMLID_126_"
           cx="92.62"
           cy="2707.501"
           r="69.162"
           gradientTransform="matrix(1 0 0 -1 0 2867.46)"
           gradientUnits="userSpaceOnUse">
          <stop
             offset="0"
             stop-color="#BF360C"
             stop-opacity=".2"
             id="stop20" />
          <stop
             offset="1"
             stop-color="#BF360C"
             stop-opacity=".02"
             id="stop22" />
        </radialGradient>
        <path
           id="XMLID_92_"
           class="st6"
           d="M92.9 160.6l-17.1-29.5-4.2 7.2z" />
        <path
           id="XMLID_90_"
           class="st0"
           d="M122.5 90.6L70.1 0H0l57.8 100L0 200h70.1l52.4-90.6c3.3-5.8 3.3-13 0-18.8z" />
        <radialGradient
           id="XMLID_127_"
           cx="92.423"
           cy="2707.063"
           r="69.723"
           gradientTransform="matrix(1 0 0 -1 0 2867.46)"
           gradientUnits="userSpaceOnUse">
          <stop
             offset="0"
             stop-color="#263238"
             stop-opacity=".2"
             id="stop27" />
          <stop
             offset="1"
             stop-color="#263238"
             stop-opacity=".02"
             id="stop29" />
        </radialGradient>
        <path
           id="XMLID_89_"
           class="st7"
           d="M71.6 138.3l4.2-7.2-18-31.1-8.5 14.8z" />
        <path
           id="XMLID_88_"
           class="st0"
           d="M122.5 90.6L70.1 0H0l57.8 100L0 200h70.1l52.4-90.6c3.3-5.8 3.3-13 0-18.8z" />
        <g
           id="XMLID_85_">
          <g
             id="XMLID_86_">
            <path
               id="XMLID_87_"
               class="st8"
               d="M35.9 0H0l92.9 160.6 17.9-31.1z" />
          </g>
        </g>
        <path
           id="XMLID_84_"
           class="st0"
           d="M122.5 90.6L70.1 0H0l57.8 100L0 200h70.1l52.4-90.6c3.3-5.8 3.3-13 0-18.8z" />
        <path
           id="XMLID_83_"
           class="st9"
           d="M122.5 109.4c3.4-5.8 3.4-13 0-18.8L70.1 0H35.9l74.9 129.5 11.7-20.1z" />
        <path
           id="XMLID_82_"
           class="st0"
           d="M122.5 90.6L70.1 0H0l57.8 100L0 200h70.1l52.4-90.6c3.3-5.8 3.3-13 0-18.8z" />
        <path
           id="XMLID_71_"
           class="st10"
           d="M110.8 129.5l-.4-.8L92.9 159 .9 0H0l92.9 160.6 17.9-31.1z" />
        <path
           id="XMLID_69_"
           class="st0"
           d="M122.5 90.6L70.1 0H0l57.8 100L0 200h70.1l52.4-90.6c3.3-5.8 3.3-13 0-18.8z" />
        <path
           id="XMLID_67_"
           class="st5"
           d="M70.1 1.6l52.4 90.6c1.5 2.7 2.3 5.6 2.5 8.6.1-3.5-.7-7-2.5-10.2L70.1 0H0l.9 1.6h69.2z" />
        <path
           id="XMLID_66_"
           class="st0"
           d="M122.5 90.6L70.1 0H0l57.8 100L0 200h70.1l52.4-90.6c3.3-5.8 3.3-13 0-18.8z" />
        <path
           id="XMLID_65_"
           class="st11"
           d="M110.8 129.5l11.6-20.1c1.8-3.1 2.6-6.7 2.5-10.2-.1 3-.9 5.9-2.5 8.6l-12.1 20.9.5.8z" />
        <path
           id="XMLID_64_"
           class="st0"
           d="M122.5 90.6L70.1 0H0l57.8 100L0 200h70.1l52.4-90.6c3.3-5.8 3.3-13 0-18.8z" />
        <radialGradient
           id="XMLID_128_"
           cx="-1.563"
           cy="2865.898"
           r="209.922"
           gradientTransform="matrix(1 0 0 -1 0 2867.46)"
           gradientUnits="userSpaceOnUse">
          <stop
             offset="0"
             stop-color="#FFF"
             stop-opacity=".1"
             id="stop46" />
          <stop
             offset="1"
             stop-color="#FFF"
             stop-opacity="0"
             id="stop48" />
        </radialGradient>
        <path
           id="XMLID_63_"
           class="st12"
           d="M122.5 90.6L70.1 0H0l57.8 100L0 200h70.1l52.4-90.6c3.3-5.8 3.3-13 0-18.8z" />
      </g>
    </g>
  </g>
  <g
     transform="translate(-10,1)"
     style="font-style:normal;font-variant:normal;font-weight:normal;font-stretch:normal;font-size:40px;line-height:125%;font-family:'Product Sans';-inkscape-font-specification:'Product Sans';letter-spacing:0px;word-spacing:0px;fill:#fafafa;fill-opacity:1;stroke:none;stroke-width:1px;stroke-linecap:butt;stroke-linejoin:miter;stroke-opacity:1"
     id="flowRoot3404">
    <path
       d="m 273.0025,54.398687 q 0,15.375 -9.1225,24.4975 -10.25,10.865 -26.9575,10.865 -15.99,0 -27.06,-11.07 -11.07,-11.07 -11.07,-27.265 0,-16.195 11.07,-27.265 11.07,-11.07 27.06,-11.07 8.0975,0 15.2725,2.87 7.175,2.87 11.7875,8.0975 l -6.765,6.765 q -3.3825,-4.1 -8.815,-6.355 -5.33,-2.3575 -11.48,-2.3575 -11.9925,0 -20.295,8.3025 -8.2,8.405 -8.2,21.0125 0,12.6075 8.2,21.0125 8.3025,8.3025 20.295,8.3025 10.9675,0 18.245,-6.15 7.2775,-6.15 8.405,-16.9125 l -26.65,0 0,-8.815 35.5675,0 q 0.5125,2.87 0.5125,5.535 z"
       style="font-size:102.5px;line-height:100%;fill:#fafafa;fill-opacity:1"
       id="path4265" />
    <path
       d="m 284.46008,88.121187 0,-73.39 22.4475,0 q 16.81,0 26.9575,10.1475 10.25,10.1475 10.25,26.5475 0,16.5025 -10.25,26.65 -10.1475,10.045 -26.9575,10.045 l -22.4475,0 z m 9.43,-64.37 0,55.35 13.0175,0 q 12.8125,0 20.1925,-7.2775 7.38,-7.38 7.38,-20.3975 0,-12.915 -7.38,-20.295 -7.38,-7.38 -20.1925,-7.38 l -13.0175,0 z"
       style="font-size:102.5px;line-height:100%;fill:#fafafa;fill-opacity:1"
       id="path4267" />
    <path
       d="m 425.95172,54.398687 q 0,15.375 -9.1225,24.4975 -10.25,10.865 -26.9575,10.865 -15.99,0 -27.06,-11.07 -11.07,-11.07 -11.07,-27.265 0,-16.195 11.07,-27.265 11.07,-11.07 27.06,-11.07 8.0975,0 15.2725,2.87 7.175,2.87 11.7875,8.0975 l -6.765,6.765 q -3.3825,-4.1 -8.815,-6.355 -5.33,-2.3575 -11.48,-2.3575 -11.9925,0 -20.295,8.3025 -8.2,8.405 -8.2,21.0125 0,12.6075 8.2,21.0125 8.3025,8.3025 20.295,8.3025 10.9675,0 18.245,-6.15 7.2775,-6.15 8.405,-16.9125 l -26.65,0 0,-8.815 35.5675,0 q 0.5125,2.87 0.5125,5.535 z"
       style="font-size:102.5px;line-height:100%;fill:#fafafa;fill-opacity:1"
       id="path4269" />
    <path
       d="m 460.03137,88.121187 0,-73.39 22.4475,0 q 16.81,0 26.9575,10.1475 10.25,10.1475 10.25,26.5475 0,16.5025 -10.25,26.65 -10.1475,10.045 -26.9575,10.045 l -22.4475,0 z m 9.43,-64.37 0,55.35 13.0175,0 q 12.8125,0 20.1925,-7.2775 7.38,-7.38 7.38,-20.3975 0,-12.915 -7.38,-20.295 -7.38,-7.38 -20.1925,-7.38 l -13.0175,0 z"
       style="font-size:102.5px;line-height:100%;fill:#fafafa;fill-opacity:1"
       id="path4271" />
    <path
       d="m 550.20895,89.761187 q -11.07,0 -18.245,-7.585 -7.175,-7.585 -7.175,-19.1675 0,-11.48 6.97,-19.065 6.97,-7.6875 17.835,-7.6875 11.1725,0 17.7325,7.2775 6.6625,7.175 6.6625,20.1925 l -0.1025,1.025 -39.4625,0 q 0.205,7.38 4.92,11.89 4.715,4.51 11.275,4.51 9.02,0 14.145,-9.02 l 8.405,4.1 q -3.3825,6.355 -9.43,9.9425 -5.945,3.5875 -13.53,3.5875 z m -15.0675,-32.8 28.8025,0 q -0.41,-5.2275 -4.305,-8.61 -3.7925,-3.485 -10.25,-3.485 -5.33,0 -9.225,3.28 -3.7925,3.28 -5.0225,8.815 z"
       style="font-size:102.5px;line-height:100%;fill:#fafafa;fill-opacity:1"
       id="path4273" />
    <path
       d="m 605.90648,88.121187 -9.43,0 -20.295,-50.225 10.25,0 14.76,38.95 0.205,0 14.965,-38.95 10.045,0 -20.5,50.225 z"
       style="font-size:102.5px;line-height:100%;fill:#fafafa;fill-opacity:1"
       id="path4275" />
    <path
       d="m 643.63129,56.653687 0,31.4675 -9.43,0 0,-73.39 42.845,0 0,9.02 -33.415,0 0,24.0875 30.135,0 0,8.815 -30.135,0 z"
       style="font-size:102.5px;line-height:100%;fill:#fafafa;fill-opacity:1"
       id="path4277" />
    <path
       d="m 705.56051,89.761187 q -11.07,0 -18.245,-7.585 -7.175,-7.585 -7.175,-19.1675 0,-11.48 6.97,-19.065 6.97,-7.6875 17.835,-7.6875 11.1725,0 17.7325,7.2775 6.6625,7.175 6.6625,20.1925 l -0.1025,1.025 -39.4625,0 q 0.205,7.38 4.92,11.89 4.715,4.51 11.275,4.51 9.02,0 14.145,-9.02 l 8.405,4.1 q -3.3825,6.355 -9.43,9.9425 -5.945,3.5875 -13.53,3.5875 z m -15.0675,-32.8 28.8025,0 q -0.41,-5.2275 -4.305,-8.61 -3.7925,-3.485 -10.25,-3.485 -5.33,0 -9.225,3.28 -3.7925,3.28 -5.0225,8.815 z"
       style="font-size:102.5px;line-height:100%;fill:#fafafa;fill-opacity:1"
       id="path4279" />
    <path
       d="m 776.90211,74.181187 q 0,6.56 -5.74,11.07 -5.74,4.51 -14.4525,4.51 -7.585,0 -13.325,-3.895 -5.74,-3.9975 -8.2,-10.455 l 8.405,-3.5875 q 1.845,4.51 5.33,7.0725 3.5875,2.46 7.79,2.46 4.51,0 7.4825,-1.9475 3.075,-1.9475 3.075,-4.6125 0,-4.8175 -7.38,-7.0725 l -8.61,-2.1525 q -14.6575,-3.69 -14.6575,-14.145 0,-6.8675 5.535,-10.9675 5.6375,-4.2025 14.35,-4.2025 6.6625,0 11.9925,3.1775 5.4325,3.1775 7.585,8.5075 l -8.405,3.485 q -1.435,-3.1775 -4.715,-4.92 -3.1775,-1.845 -7.175,-1.845 -3.69,0 -6.6625,1.845 -2.87,1.845 -2.87,4.51 0,4.305 8.0975,6.15 l 7.585,1.9475 q 14.965,3.69 14.965,15.0675 z"
       style="font-size:102.5px;line-height:100%;fill:#fafafa;fill-opacity:1"
       id="path4281" />
    <path
       d="m 804.19434,88.941187 q -6.15,0 -10.25,-3.7925 -3.9975,-3.7925 -4.1,-10.5575 l 0,-28.085 -8.815,0 0,-8.61 8.815,0 0,-15.375 9.43,0 0,15.375 12.3,0 0,8.61 -12.3,0 0,25.01 q 0,5.0225 1.9475,6.8675 1.9475,1.7425 4.4075,1.7425 1.1275,0 2.1525,-0.205 1.1275,-0.3075 2.05,-0.7175 l 2.9725,8.405 q -3.69,1.3325 -8.61,1.3325 z"
       style="font-size:102.5px;line-height:100%;fill:#fafafa;fill-opacity:1"
       id="path4283" />
    <path
       d="m 210.58,184.68549 -8.74,0 0,-68.02 8.74,0 0,68.02 z"
       style="font-size:95px;line-height:100%;fill:#fafafa;fill-opacity:1"
       id="path4285" />
    <path
       d="m 258.11117,184.68549 -37.62,0 0,-7.6 26.505,-30.97 -25.745,0 0,-7.98 36.48,0 0,7.6 -26.505,30.97 26.885,0 0,7.98 z"
       style="font-size:95px;line-height:100%;fill:#fafafa;fill-opacity:1"
       id="path4287" />
    <path
       d="m 275.11469,184.68549 -8.74,0 0,-46.55 8.36,0 0,6.46 0.38,0 q 1.995,-3.42 6.08,-5.7 4.18,-2.28 8.265,-2.28 5.13,0 9.025,2.375 3.895,2.375 5.7,6.555 5.795,-8.93 16.055,-8.93 8.075,0 12.445,4.94 4.37,4.94 4.37,14.06 l 0,29.07 -8.74,0 0,-27.74 q 0,-6.555 -2.375,-9.405 -2.375,-2.945 -7.98,-2.945 -5.035,0 -8.455,4.275 -3.42,4.275 -3.42,10.07 l 0,25.745 -8.74,0 0,-27.74 q 0,-6.555 -2.375,-9.405 -2.375,-2.945 -7.98,-2.945 -5.035,0 -8.455,4.275 -3.42,4.275 -3.42,10.07 l 0,25.745 z"
       style="font-size:95px;line-height:100%;fill:#fafafa;fill-opacity:1"
       id="path4289" />
    <path
       d="m 358.76367,122.08049 q 0,2.565 -1.805,4.37 -1.805,1.805 -4.37,1.805 -2.565,0 -4.37,-1.805 -1.805,-1.805 -1.805,-4.37 0,-2.565 1.805,-4.37 1.805,-1.805 4.37,-1.805 2.565,0 4.37,1.805 1.805,1.805 1.805,4.37 z m -1.805,16.055 0,46.55 -8.74,0 0,-46.55 8.74,0 z"
       style="font-size:95px;line-height:100%;fill:#fafafa;fill-opacity:1"
       id="path4291" />
    <path
       d="m 377.16547,184.68549 -8.74,0 0,-46.55 8.36,0 0,7.6 0.38,0 q 1.33,-3.705 5.415,-6.27 4.18,-2.66 8.17,-2.66 3.8,0 6.46,1.14 l -2.66,8.455 q -1.615,-0.665 -5.13,-0.665 -4.94,0 -8.645,3.99 -3.61,3.99 -3.61,9.31 l 0,25.65 z"
       style="font-size:95px;line-height:100%;fill:#fafafa;fill-opacity:1"
       id="path4293" />
    <path
       d="m 463.80398,176.32549 0,8.36 -41.42,0 0,-8.74 16.815,-17.005 q 8.455,-8.645 11.685,-12.92 3.23,-4.37 3.23,-9.12 0,-4.275 -3.325,-7.315 -3.325,-3.04 -8.55,-3.04 -4.465,0 -7.695,2.66 -3.23,2.66 -4.18,6.46 l -7.98,-3.23 q 1.9,-5.985 7.315,-10.07 5.415,-4.18 12.73,-4.18 8.835,0 14.725,5.415 5.89,5.415 5.89,13.3 0,9.405 -10.355,20.33 l -19,19.095 30.115,0 z"
       style="font-size:95px;line-height:100%;fill:#fafafa;fill-opacity:1"
       id="path4295" />
    <path
       d="m 472.11945,152.19549 q 0,-14.82 7.315,-24.415 7.315,-9.595 18.81,-9.595 11.495,0 18.81,9.69 7.315,9.595 7.315,24.32 0,14.63 -7.315,24.415 -7.315,9.595 -18.81,9.595 -11.495,0 -18.81,-9.595 -7.315,-9.785 -7.315,-24.415 z m 43.32,0 q 0,-11.21 -4.75,-18.43 -4.655,-7.22 -12.445,-7.22 -7.79,0 -12.445,7.22 -4.75,7.22 -4.75,18.43 0,11.21 4.75,18.525 4.655,7.125 12.445,7.125 7.79,0 12.445,-7.22 4.75,-7.315 4.75,-18.43 z"
       style="font-size:95px;line-height:100%;fill:#fafafa;fill-opacity:1"
       id="path4297" />
    <path
       d="m 556.37109,119.70549 0,64.98 -8.74,0 0,-54.15 -12.635,5.51 -3.325,-7.41 19.095,-8.93 5.605,0 z"
       style="font-size:95px;line-height:100%;fill:#fafafa;fill-opacity:1"
       id="path4299" />
    <path
       d="m 592.81992,143.45549 q 7.885,0 14.06,6.27 6.27,6.175 6.27,14.725 0,8.74 -6.65,15.295 -6.745,6.46 -15.58,6.46 -9.405,0 -15.865,-6.46 -6.46,-6.46 -6.46,-15.295 0,-7.885 6.365,-17.955 l 18.905,-28.31 7.03,4.845 -16.055,22.23 0.19,0.19 q 2.945,-1.995 7.79,-1.995 z m -15.39,21.09 q 0,5.605 3.895,9.5 3.895,3.8 9.595,3.8 5.7,0 9.5,-3.8 3.895,-3.895 3.895,-9.5 0,-5.51 -3.99,-9.405 -3.895,-3.895 -9.405,-3.895 -5.415,0 -9.5,3.895 -3.99,3.895 -3.99,9.405 z"
       style="font-size:95px;line-height:100%;fill:#fafafa;fill-opacity:1"
       id="path4301" />
  </g>
  <g
     transform="translate(-10,21)"
     style="font-style:normal;font-variant:normal;font-weight:normal;font-stretch:normal;font-size:40px;line-height:125%;font-family:'Product Sans';-inkscape-font-specification:'Product Sans';letter-spacing:0px;word-spacing:0px;fill:#fafafa;fill-opacity:1;stroke:none;stroke-width:1px;stroke-linecap:butt;stroke-linejoin:miter;stroke-opacity:1"
     id="flowRoot4214">
    <path
       d="m 213.86,81.766187 q 0,2.87 -2.05,4.92 -1.9475,2.05 -4.92,2.05 -2.87,0 -4.92,-2.05 -2.05,-2.05 -2.05,-4.92 0,-2.9725 2.05,-4.92 2.05,-2.05 4.92,-2.05 2.9725,0 4.92,2.05 2.05,1.9475 2.05,4.92 z"
       style="font-size:102.5px;line-height:100%;fill:#fafafa;fill-opacity:1"
       id="path4304" />
  </g>
</svg>
